<svg width="147" height="167" viewBox="0 0 147 167" fill="none" xmlns="http://www.w3.org/2000/svg">
<path d="M97 112C98.1046 112 99 112.895 99 114V132C99 133.105 98.1046 134 97 134H91V148H96C97.1046 148 98 148.895 98 150V165C98 166.105 97.1046 167 96 167H81C79.8954 167 79 166.105 79 165V150C79 148.895 79.8954 148 81 148H86V134H79C77.8954 134 77 133.105 77 132V114C77 112.895 77.8954 112 79 112H97ZM111 137C112.105 137 113 137.895 113 139V149C113 150.105 112.105 151 111 151H101C99.8954 151 99 150.105 99 149V139C99 137.895 99.8954 137 101 137H111ZM104 62C105.105 62 106 62.8954 106 64V70.542L118 72.2451V66C118 64.8954 118.895 64 120 64H145C146.105 64 147 64.8954 147 66V91C147 92.1046 146.105 93 145 93H136.356L136.366 99H140C141.105 99 142 99.8954 142 101V110C142 111.105 141.105 112 140 112H131C130.903 112 130.809 111.99 130.716 111.977C130.895 112.276 131 112.625 131 113V133C131 134.105 130.105 135 129 135H109C107.895 135 107 134.105 107 133V124.256H99.0117V121.003H107V113C107 111.895 107.895 111 109 111H129C129.096 111 129.191 111.009 129.283 111.022C129.104 110.723 129 110.374 129 110V105.639L110 101.606V105C110 106.105 109.105 107 108 107H93C91.8954 107 91 106.105 91 105V92C91 93.1046 90.1046 94 89 94H83C81.8954 94 81 93.1046 81 92V86C81 84.8954 81.8954 84 83 84H89C90.1046 84 91 84.8954 91 86V90C91 88.8954 91.8954 88 93 88H108C109.105 88 110 88.8954 110 90V98.2803L129 102.313V101C129 99.8954 129.895 99 131 99H133.113L133.104 93H120C118.895 93 118 92.1046 118 91V77.1367L106 75.4336V78C106 79.1046 105.105 80 104 80H90C88.8954 80 88 79.1046 88 78V64C88 62.8954 88.8954 62 90 62H104ZM99 0C100.105 2.57702e-07 101 0.895431 101 2V18C101 19.1046 100.105 20 99 20H94V34H101C101.162 34 101.318 34.0214 101.469 34.0576L105 31.1494V22C105 20.8954 105.895 20 107 20H117C118.105 20 119 20.8954 119 22V32C119 32.7245 118.613 33.3562 118.036 33.707L121.49 37H131C132.105 37 133 37.8954 133 39V52C133 53.1046 132.105 54 131 54H118C116.895 54 116 53.1046 116 52V39C116 38.2454 116.418 37.5886 117.035 37.248L113.628 34H107C106.894 34 106.79 33.9886 106.688 33.9727L103.068 36.9561L103 36.8721V54C103 55.1046 102.105 56 101 56H83C81.8954 56 81 55.1046 81 54V36C81 34.8954 81.8954 34 83 34H89V20H83C81.8954 20 81 19.1046 81 18V2C81 0.895431 81.8954 1.61064e-08 83 0H99Z" fill="#FF5F51"/>
<path d="M59 94C66.1797 94 72 99.8203 72 107C72 112.657 68.3863 117.469 63.3418 119.256C62.5656 121.581 62.1028 123.505 62.0723 125.501C62.0407 127.568 62.4748 129.742 63.5596 132.536C68.4491 134.053 72 138.612 72 144C72 150.627 66.6274 156 60 156C57.8031 156 55.7458 155.407 53.9746 154.376C55.2301 155.717 56 157.518 56 159.5C56 163.642 52.6421 167 48.5 167C44.3579 167 41 163.642 41 159.5C41 155.358 44.3579 152 48.5 152C49.6901 152 50.8149 152.278 51.8145 152.771C50.2665 151.326 49.1004 149.477 48.4863 147.392C47.0507 147.06 45.9203 146.892 44.7412 146.994C43.6498 147.089 42.4905 147.417 40.9971 148.104C40.9412 151.922 37.8311 155 34 155C30.134 155 27 151.866 27 148C27 144.134 30.134 141 34 141C36.5446 141 38.7717 142.358 39.9971 144.389C41.6015 144.746 42.8181 144.929 44.0859 144.8C45.2241 144.683 46.4319 144.311 48.0098 143.536C48.2009 138.508 51.4857 134.274 56.0156 132.68C56.708 130.451 57.111 128.585 57.1084 126.659C57.1055 124.557 56.6172 122.352 55.4404 119.506C49.9913 117.958 46 112.945 46 107C46 99.8203 51.8203 94 59 94ZM58.5 71C63.7467 71 68 75.2533 68 80.5C68 85.7467 63.7467 90 58.5 90C54.6171 90 51.28 87.6697 49.8066 84.332C46.1636 84.1744 43.1449 84.3477 40.0127 85.2725C37.2744 86.0811 34.4241 87.4724 30.9814 89.7549C30.9931 90.0018 31 90.2502 31 90.5C31 95.9286 28.2084 100.704 23.9834 103.473C23.8932 105.228 23.9239 106.562 24.2793 107.847C24.6438 109.164 25.3609 110.465 26.7139 112.117C27.2983 112.04 27.8945 112 28.5 112C35.9558 112 42 118.044 42 125.5C42 132.956 35.9558 139 28.5 139C21.0442 139 15 132.956 15 125.5C15 120.584 17.6274 116.282 21.5547 113.921C21.6191 112.148 21.5705 110.807 21.1914 109.521C20.8308 108.297 20.1612 107.094 18.9492 105.614C17.8399 105.866 16.6856 106 15.5 106C6.93959 106 0 99.0604 0 90.5C0 81.9396 6.93959 75 15.5 75C21.8426 75 27.2946 78.8099 29.6943 84.2656C30.2021 84.2442 30.7002 84.22 31.1895 84.1924C33.7305 83.9814 36.8578 83.4768 39.8809 82.7295C41.9148 82.2267 43.8909 81.6176 45.5996 80.9209C46.0034 80.7562 46.3905 80.5858 46.7588 80.4131C47.5439 79.9875 48.3291 79.516 49.1201 78.9922C49.8426 74.4621 53.7665 71 58.5 71ZM28 61C32.4183 61 36 64.5817 36 69C36 73.4183 32.4183 77 28 77C23.5817 77 20 73.4183 20 69C20 64.5817 23.5817 61 28 61ZM56.5 0C62.8513 0 68 5.14873 68 11.5C68 16.5371 64.7604 20.8143 60.252 22.3701C59.4938 24.4403 59.0311 26.086 58.9746 27.7979C58.9149 29.6132 59.3116 31.54 60.3672 34.1494C66.0185 36.4624 70 42.016 70 48.5C70 57.0604 63.0604 64 54.5 64C45.9396 64 39 57.0604 39 48.5C39 48.166 39.0114 47.8346 39.0322 47.5059C38.179 47.0763 37.4735 46.7958 36.7119 46.6699C35.7608 46.5129 34.6823 46.5903 33.0889 46.9912C31.3395 51.1106 27.2576 54 22.5 54C20.8102 54 19.207 53.6322 17.7617 52.9775C16.8541 53.7051 16.2187 54.2997 15.7383 55.041C15.207 55.8611 14.8449 56.8971 14.5742 58.5566C16.0741 60.0894 17 62.1861 17 64.5C17 69.1944 13.1944 73 8.5 73C3.80558 73 0 69.1944 0 64.5C0 59.8056 3.80558 56 8.5 56C9.36436 56 10.1985 56.1293 10.9844 56.3691C12.0717 55.4891 12.7988 54.829 13.3262 53.9854C13.8217 53.1926 14.1596 52.205 14.4014 50.6641C12.301 48.5804 11 45.6923 11 42.5C11 36.1487 16.1487 31 22.5 31C28.8513 31 34 36.1487 34 42.5C34 42.6827 33.9948 42.8643 33.9863 43.0449C35.0306 43.5725 35.8376 43.9069 36.7148 44.0371C37.5414 44.1598 38.4601 44.1032 39.7236 43.8086C41.6609 37.7013 47.2786 33.2336 53.9727 33.0098C54.4707 31.4332 54.7646 30.0808 54.7871 28.6885C54.8156 26.9209 54.4091 25.0545 53.3701 22.5645C50.7949 21.8374 48.5875 20.2386 47.0869 18.1035C46.4094 18.2896 45.8443 18.504 45.3154 18.8174C44.4756 19.315 43.6912 20.081 42.7119 21.4443C42.8978 22.0978 43 22.7869 43 23.5C43 27.6421 39.6421 31 35.5 31C31.3579 31 28 27.6421 28 23.5C28 19.3579 31.3579 16 35.5 16C37.41 16 39.1524 16.715 40.4766 17.8906C41.8368 17.587 42.7794 17.3186 43.625 16.7988C44.2633 16.4064 44.864 15.8548 45.543 14.9971C45.1913 13.8942 45 12.7195 45 11.5C45 5.14873 50.1487 0 56.5 0Z" fill="#65C4FF"/>
</svg>
